<mxfile host="app.diagrams.net" modified="2023-12-19T14:24:25.452Z" agent="Mozilla/5.0 (Windows NT 10.0; Win64; x64) AppleWebKit/537.36 (KHTML, like Gecko) Chrome/120.0.0.0 Safari/537.36 Edg/120.0.0.0" etag="8XKS9Jtoo3ZCJs160xpE" version="22.1.11" type="github">
  <diagram name="Página-1" id="AgBR8-F2z5Gr9dZX2Vv_">
    <mxGraphModel dx="1386" dy="793" grid="1" gridSize="10" guides="1" tooltips="1" connect="1" arrows="1" fold="1" page="1" pageScale="1" pageWidth="827" pageHeight="1169" math="0" shadow="0">
      <root>
        <mxCell id="0" />
        <mxCell id="1" parent="0" />
        <mxCell id="JoQlRRwk-q06-RkQopDk-1" value="" style="html=1;verticalAlign=bottom;startArrow=circle;startFill=1;endArrow=open;startSize=6;endSize=8;curved=0;rounded=0;entryX=0;entryY=0.5;entryDx=0;entryDy=0;" edge="1" parent="1" target="JoQlRRwk-q06-RkQopDk-2">
          <mxGeometry width="80" relative="1" as="geometry">
            <mxPoint x="100" y="100" as="sourcePoint" />
            <mxPoint x="150" y="80" as="targetPoint" />
          </mxGeometry>
        </mxCell>
        <mxCell id="JoQlRRwk-q06-RkQopDk-2" value="Receber&lt;br&gt;número da&lt;br&gt;conta" style="rounded=1;whiteSpace=wrap;html=1;" vertex="1" parent="1">
          <mxGeometry x="150" y="70" width="120" height="60" as="geometry" />
        </mxCell>
        <mxCell id="JoQlRRwk-q06-RkQopDk-3" value="Consultar&lt;br&gt;conta" style="whiteSpace=wrap;html=1;rounded=1;" vertex="1" parent="1">
          <mxGeometry x="354" y="70" width="120" height="60" as="geometry" />
        </mxCell>
        <mxCell id="JoQlRRwk-q06-RkQopDk-10" value="Receber&lt;br&gt;senha" style="rounded=1;whiteSpace=wrap;html=1;strokeWidth=2;" vertex="1" parent="1">
          <mxGeometry x="520" y="200" width="120" height="60" as="geometry" />
        </mxCell>
        <mxCell id="JoQlRRwk-q06-RkQopDk-13" value="Validar &lt;br&gt;senha" style="whiteSpace=wrap;html=1;rounded=1;strokeWidth=2;" vertex="1" parent="1">
          <mxGeometry x="520" y="320" width="120" height="60" as="geometry" />
        </mxCell>
        <mxCell id="JoQlRRwk-q06-RkQopDk-15" value="" style="rhombus;whiteSpace=wrap;html=1;" vertex="1" parent="1">
          <mxGeometry x="555" y="410" width="50" height="70" as="geometry" />
        </mxCell>
        <mxCell id="JoQlRRwk-q06-RkQopDk-18" value="Consultar&lt;br&gt;saldo" style="rounded=1;whiteSpace=wrap;html=1;" vertex="1" parent="1">
          <mxGeometry x="520" y="525" width="120" height="60" as="geometry" />
        </mxCell>
        <mxCell id="JoQlRRwk-q06-RkQopDk-20" value="Apresentar&lt;br&gt;saldo" style="whiteSpace=wrap;html=1;rounded=1;" vertex="1" parent="1">
          <mxGeometry x="520" y="620" width="120" height="60" as="geometry" />
        </mxCell>
        <mxCell id="JoQlRRwk-q06-RkQopDk-22" value="" style="endArrow=open;endFill=1;endSize=12;html=1;rounded=0;exitX=0.5;exitY=1;exitDx=0;exitDy=0;entryX=0.5;entryY=0;entryDx=0;entryDy=0;" edge="1" parent="1" source="JoQlRRwk-q06-RkQopDk-18" target="JoQlRRwk-q06-RkQopDk-20">
          <mxGeometry width="160" relative="1" as="geometry">
            <mxPoint x="330" y="700" as="sourcePoint" />
            <mxPoint x="490" y="700" as="targetPoint" />
          </mxGeometry>
        </mxCell>
        <mxCell id="JoQlRRwk-q06-RkQopDk-23" value="" style="endArrow=open;endFill=1;endSize=12;html=1;rounded=0;exitX=0.5;exitY=1;exitDx=0;exitDy=0;entryX=0.5;entryY=0;entryDx=0;entryDy=0;" edge="1" parent="1" source="JoQlRRwk-q06-RkQopDk-15" target="JoQlRRwk-q06-RkQopDk-18">
          <mxGeometry width="160" relative="1" as="geometry">
            <mxPoint x="590" y="610" as="sourcePoint" />
            <mxPoint x="590" y="690" as="targetPoint" />
          </mxGeometry>
        </mxCell>
        <mxCell id="JoQlRRwk-q06-RkQopDk-37" value="[Senha valida]" style="edgeLabel;html=1;align=center;verticalAlign=middle;resizable=0;points=[];" vertex="1" connectable="0" parent="JoQlRRwk-q06-RkQopDk-23">
          <mxGeometry x="-0.35" relative="1" as="geometry">
            <mxPoint as="offset" />
          </mxGeometry>
        </mxCell>
        <mxCell id="JoQlRRwk-q06-RkQopDk-24" value="" style="endArrow=open;endFill=1;endSize=12;html=1;rounded=0;exitX=0.5;exitY=1;exitDx=0;exitDy=0;entryX=0.5;entryY=0;entryDx=0;entryDy=0;" edge="1" parent="1" source="JoQlRRwk-q06-RkQopDk-10" target="JoQlRRwk-q06-RkQopDk-13">
          <mxGeometry width="160" relative="1" as="geometry">
            <mxPoint x="260" y="310" as="sourcePoint" />
            <mxPoint x="260" y="390" as="targetPoint" />
          </mxGeometry>
        </mxCell>
        <mxCell id="JoQlRRwk-q06-RkQopDk-25" value="" style="endArrow=open;endFill=1;endSize=12;html=1;rounded=0;exitX=0.5;exitY=1;exitDx=0;exitDy=0;entryX=0.5;entryY=0;entryDx=0;entryDy=0;exitPerimeter=0;" edge="1" parent="1">
          <mxGeometry width="160" relative="1" as="geometry">
            <mxPoint x="580" y="115" as="sourcePoint" />
            <mxPoint x="580" y="200" as="targetPoint" />
          </mxGeometry>
        </mxCell>
        <mxCell id="JoQlRRwk-q06-RkQopDk-26" value="[Conta valida]" style="edgeLabel;html=1;align=center;verticalAlign=middle;resizable=0;points=[];" vertex="1" connectable="0" parent="JoQlRRwk-q06-RkQopDk-25">
          <mxGeometry x="-0.0118" relative="1" as="geometry">
            <mxPoint x="1" y="-4" as="offset" />
          </mxGeometry>
        </mxCell>
        <mxCell id="JoQlRRwk-q06-RkQopDk-27" value="" style="endArrow=open;endFill=1;endSize=12;html=1;rounded=0;exitX=1;exitY=0.5;exitDx=0;exitDy=0;entryX=0;entryY=0.5;entryDx=0;entryDy=0;" edge="1" parent="1" source="JoQlRRwk-q06-RkQopDk-3" target="JoQlRRwk-q06-RkQopDk-38">
          <mxGeometry width="160" relative="1" as="geometry">
            <mxPoint x="510" y="80" as="sourcePoint" />
            <mxPoint x="550" y="80" as="targetPoint" />
          </mxGeometry>
        </mxCell>
        <mxCell id="JoQlRRwk-q06-RkQopDk-28" value="" style="endArrow=open;endFill=1;endSize=12;html=1;rounded=0;exitX=1;exitY=0.5;exitDx=0;exitDy=0;entryX=0;entryY=0.5;entryDx=0;entryDy=0;" edge="1" parent="1" source="JoQlRRwk-q06-RkQopDk-2" target="JoQlRRwk-q06-RkQopDk-3">
          <mxGeometry width="160" relative="1" as="geometry">
            <mxPoint x="330" y="140" as="sourcePoint" />
            <mxPoint x="330" y="220" as="targetPoint" />
          </mxGeometry>
        </mxCell>
        <mxCell id="JoQlRRwk-q06-RkQopDk-31" value="[conta invalida]" style="text;html=1;align=center;verticalAlign=middle;resizable=0;points=[];autosize=1;strokeColor=none;fillColor=none;" vertex="1" parent="1">
          <mxGeometry x="600" y="65" width="100" height="30" as="geometry" />
        </mxCell>
        <mxCell id="JoQlRRwk-q06-RkQopDk-34" value="[Senha invalida]" style="text;html=1;align=center;verticalAlign=middle;resizable=0;points=[];autosize=1;strokeColor=none;fillColor=none;" vertex="1" parent="1">
          <mxGeometry x="590" y="410" width="110" height="30" as="geometry" />
        </mxCell>
        <mxCell id="JoQlRRwk-q06-RkQopDk-35" value="" style="endArrow=open;endFill=1;endSize=12;html=1;rounded=0;exitX=0.5;exitY=1;exitDx=0;exitDy=0;" edge="1" parent="1">
          <mxGeometry width="160" relative="1" as="geometry">
            <mxPoint x="579.5" y="680" as="sourcePoint" />
            <mxPoint x="580" y="730" as="targetPoint" />
          </mxGeometry>
        </mxCell>
        <mxCell id="JoQlRRwk-q06-RkQopDk-36" value="" style="ellipse;html=1;shape=endState;fillColor=#000000;strokeColor=#ff0000;" vertex="1" parent="1">
          <mxGeometry x="565" y="730" width="30" height="30" as="geometry" />
        </mxCell>
        <mxCell id="JoQlRRwk-q06-RkQopDk-38" value="" style="rhombus;whiteSpace=wrap;html=1;" vertex="1" parent="1">
          <mxGeometry x="555" y="65" width="50" height="70" as="geometry" />
        </mxCell>
        <mxCell id="JoQlRRwk-q06-RkQopDk-39" value="" style="endArrow=open;endFill=1;endSize=12;html=1;rounded=0;exitX=0.5;exitY=1;exitDx=0;exitDy=0;entryX=0.5;entryY=0;entryDx=0;entryDy=0;" edge="1" parent="1" source="JoQlRRwk-q06-RkQopDk-13" target="JoQlRRwk-q06-RkQopDk-15">
          <mxGeometry width="160" relative="1" as="geometry">
            <mxPoint x="330" y="330" as="sourcePoint" />
            <mxPoint x="490" y="330" as="targetPoint" />
          </mxGeometry>
        </mxCell>
        <mxCell id="JoQlRRwk-q06-RkQopDk-41" value="" style="endArrow=open;endFill=1;endSize=12;html=1;rounded=0;exitX=1;exitY=0.5;exitDx=0;exitDy=0;" edge="1" parent="1" source="JoQlRRwk-q06-RkQopDk-38">
          <mxGeometry width="160" relative="1" as="geometry">
            <mxPoint x="330" y="170" as="sourcePoint" />
            <mxPoint x="110" y="90" as="targetPoint" />
            <Array as="points">
              <mxPoint x="730" y="100" />
              <mxPoint x="730" y="50" />
              <mxPoint x="110" y="50" />
            </Array>
          </mxGeometry>
        </mxCell>
        <mxCell id="JoQlRRwk-q06-RkQopDk-43" value="" style="endArrow=open;endFill=1;endSize=12;html=1;rounded=0;exitX=1;exitY=0.5;exitDx=0;exitDy=0;entryX=1;entryY=0.5;entryDx=0;entryDy=0;" edge="1" parent="1" source="JoQlRRwk-q06-RkQopDk-15" target="JoQlRRwk-q06-RkQopDk-10">
          <mxGeometry width="160" relative="1" as="geometry">
            <mxPoint x="330" y="420" as="sourcePoint" />
            <mxPoint x="720" y="170" as="targetPoint" />
            <Array as="points">
              <mxPoint x="720" y="445" />
              <mxPoint x="720" y="230" />
            </Array>
          </mxGeometry>
        </mxCell>
      </root>
    </mxGraphModel>
  </diagram>
</mxfile>
